<svg width="183" height="20" viewBox="0 0 183 20" fill="none" xmlns="http://www.w3.org/2000/svg">
<g id="Logo/Black" clip-path="url(#clip0_9610_177)">
<path id="Vector" d="M12.2258 1.01058C13.3532 1.57143 14.2306 2.36508 14.8528 3.38624C15.475 4.40741 15.7834 5.59788 15.7834 6.96825C15.7834 8.33862 15.475 9.5291 14.8528 10.5503C14.2306 11.5714 13.3585 12.3598 12.2258 12.9259C11.0984 13.4868 9.7902 13.7672 8.30119 13.7672H5.19556V19.836H0V0.169312H8.30119C9.7902 0.169312 11.0984 0.449735 12.2258 1.01058ZM7.81727 9.55026C8.64685 9.55026 9.30095 9.32275 9.77956 8.86243C10.2582 8.40212 10.4975 7.77249 10.4975 6.96825C10.4975 6.16402 10.2582 5.5291 9.77956 5.07407C9.30095 4.61905 8.64685 4.38624 7.81727 4.38624H5.19024V9.55556H7.81727V9.55026Z" fill="white"/>
<path id="Vector_2" d="M30.3172 1.01058C31.4658 1.57143 32.3592 2.36508 32.9974 3.38624C33.6355 4.40741 33.9546 5.59788 33.9546 6.96825C33.9546 8.14815 33.6887 9.21693 33.1622 10.1693C32.6358 11.127 31.9178 11.8995 31.0138 12.5026L34.598 19.836H28.8973L25.9884 13.7672H23.1965V19.836H18.001V0.169312H26.3288C27.8337 0.169312 29.1632 0.449735 30.3065 1.01058H30.3172ZM25.914 9.55026C26.7595 9.55026 27.4296 9.32275 27.9188 8.86243C28.408 8.40212 28.6527 7.77249 28.6527 6.96825C28.6527 6.16402 28.408 5.5291 27.9188 5.07407C27.4296 4.61905 26.7595 4.38624 25.914 4.38624H23.2019V9.55556H25.914V9.55026Z" fill="white"/>
<path id="Vector_3" d="M50.658 0.169312V4.55026H42.2186V7.92063H48.9669V12.0212H42.2186V15.4497H50.9718V19.8307H37.0283V0.169312H50.6633H50.658Z" fill="white"/>
<path id="Vector_4" d="M58.8687 15.3228C59.4696 15.7989 60.2886 16.037 61.3255 16.037C62.1551 16.037 62.8199 15.8783 63.3304 15.5608C63.8409 15.2434 64.0908 14.7725 64.0908 14.1587C64.0908 13.7672 63.9472 13.455 63.6654 13.2328C63.3835 13.0106 62.9475 12.8148 62.3519 12.6561C61.7563 12.4974 60.7831 12.2751 59.4324 11.9947C58.1135 11.7143 57.0234 11.381 56.1566 11C55.2898 10.619 54.5931 10.037 54.0666 9.25926C53.5402 8.48148 53.2743 7.44974 53.2743 6.15344C53.2743 4.99471 53.6093 3.9418 54.274 3.00529C54.9441 2.06878 55.8641 1.33333 57.0393 0.798942C58.2146 0.26455 59.5281 0 60.9799 0C62.4317 0 63.809 0.269841 65.0002 0.814815C66.1914 1.35979 67.138 2.11111 67.824 3.07407C68.51 4.03704 68.8556 5.11111 68.8556 6.29101H63.8037C63.7452 5.59788 63.474 5.04233 62.9847 4.61905C62.4955 4.19577 61.8254 3.98942 60.9799 3.98942C60.246 3.98942 59.6504 4.13757 59.1878 4.43915C58.7251 4.74074 58.4964 5.17989 58.4964 5.76191C58.4964 6.15344 58.6347 6.46032 58.9059 6.67725C59.1771 6.89418 59.6079 7.07937 60.1928 7.2381C60.7778 7.39683 61.7244 7.60847 63.0432 7.86772C64.378 8.13228 65.4894 8.44974 66.3722 8.82011C67.255 9.19048 67.9676 9.75661 68.5047 10.5079C69.0418 11.2593 69.3077 12.2593 69.3077 13.5132C69.3077 14.7672 68.9567 15.836 68.2653 16.8254C67.5687 17.8201 66.6062 18.5926 65.3724 19.1587C64.1387 19.7196 62.7614 20 61.2351 20C59.7089 20 58.2252 19.709 56.9436 19.127C55.662 18.545 54.6569 17.7513 53.9231 16.7407C53.1892 15.7302 52.8223 14.5979 52.8223 13.3439L57.8742 13.455C57.9327 14.2222 58.2624 14.8466 58.8634 15.3228H58.8687Z" fill="white"/>
<path id="Vector_5" d="M86.2558 0.169312V4.55026H80.922V19.8307H75.7264V4.55026H70.3926V0.169312H86.2558Z" fill="white"/>
<path id="Vector_6" d="M91.6111 0.169312H97.8808L104.884 19.8307H99.2954L98.051 16.0952H91.1644L89.9519 19.8307H84.5596L91.6111 0.169312ZM96.6949 12.0212L94.5784 5.6455L92.4885 12.0212H96.6949Z" fill="white"/>
<path id="Vector_7" d="M111.399 15.3228C112 15.7989 112.819 16.037 113.856 16.037C114.685 16.037 115.35 15.8783 115.861 15.5608C116.371 15.2434 116.621 14.7725 116.621 14.1587C116.621 13.7672 116.478 13.455 116.196 13.2328C115.914 13.0106 115.478 12.8148 114.882 12.6561C114.287 12.4974 113.313 12.2751 111.963 11.9947C110.644 11.7143 109.554 11.381 108.687 11C107.82 10.619 107.123 10.037 106.597 9.25926C106.07 8.48148 105.805 7.44974 105.805 6.15344C105.805 4.99471 106.14 3.9418 106.804 3.00529C107.474 2.06878 108.394 1.33333 109.57 0.798942C110.745 0.26455 112.058 0 113.51 0C114.962 0 116.339 0.269841 117.53 0.814815C118.722 1.35979 119.668 2.11111 120.354 3.07407C121.04 4.03704 121.386 5.11111 121.386 6.29101H116.334C116.275 5.59788 116.004 5.04233 115.515 4.61905C115.026 4.19577 114.356 3.98942 113.51 3.98942C112.776 3.98942 112.181 4.13757 111.718 4.43915C111.255 4.74074 111.027 5.17989 111.027 5.76191C111.027 6.15344 111.165 6.46032 111.436 6.67725C111.707 6.89418 112.138 7.07937 112.723 7.2381C113.308 7.39683 114.255 7.60847 115.573 7.86772C116.908 8.13228 118.02 8.44974 118.902 8.82011C119.785 9.19048 120.498 9.75661 121.035 10.5079C121.572 11.2593 121.838 12.2593 121.838 13.5132C121.838 14.7672 121.487 15.836 120.796 16.8254C120.099 17.8201 119.136 18.5926 117.903 19.1587C116.669 19.7196 115.292 20 113.765 20C112.239 20 110.755 19.709 109.474 19.127C108.192 18.545 107.187 17.7513 106.453 16.7407C105.719 15.7302 105.353 14.5979 105.353 13.3439L110.405 13.455C110.463 14.2222 110.793 14.8466 111.394 15.3228H111.399Z" fill="white"/>
<path id="Vector_8" d="M129.799 0.169312V7.72487H136.377V0.169312H141.572V19.8307H136.377V12.1058H129.799V19.8307H124.603V0.169312H129.799Z" fill="white"/>
<path id="Vector_9" d="M159.462 18.6931C157.946 19.5661 156.212 20 154.255 20C152.298 20 150.56 19.5661 149.049 18.6931C147.534 17.8201 146.358 16.6296 145.518 15.1111C144.683 13.5926 144.263 11.8889 144.263 10C144.263 8.11111 144.683 6.40741 145.518 4.88889C146.358 3.37037 147.534 2.17989 149.049 1.30688C150.565 0.433862 152.298 0 154.255 0C156.212 0 157.951 0.433862 159.462 1.30688C160.972 2.17989 162.152 3.37037 162.993 4.88889C163.828 6.40741 164.248 8.11111 164.248 10C164.248 11.8889 163.828 13.5926 162.993 15.1111C162.152 16.6296 160.977 17.8201 159.462 18.6931ZM154.255 15.7302C155.665 15.7302 156.803 15.1905 157.659 14.1164C158.515 13.0423 158.946 11.6667 158.946 10C158.946 8.33333 158.52 6.96296 157.659 5.8836C156.803 4.80423 155.67 4.26984 154.255 4.26984C152.841 4.26984 151.708 4.80952 150.852 5.8836C149.996 6.95767 149.565 8.33333 149.565 10C149.565 11.6667 149.991 13.037 150.852 14.1164C151.714 15.1958 152.841 15.7302 154.255 15.7302Z" fill="white"/>
<path id="Vector_10" d="M179.17 1.01058C180.297 1.57143 181.174 2.36508 181.797 3.38624C182.419 4.40741 182.727 5.59788 182.727 6.96825C182.727 8.33862 182.419 9.5291 181.797 10.5503C181.174 11.5714 180.302 12.3598 179.17 12.9259C178.042 13.4868 176.734 13.7672 175.245 13.7672H172.139V19.836H166.944V0.169312H175.245C176.734 0.169312 178.042 0.449735 179.17 1.01058ZM174.766 9.55026C175.596 9.55026 176.25 9.32275 176.729 8.86243C177.207 8.40212 177.447 7.77249 177.447 6.96825C177.447 6.16402 177.207 5.5291 176.729 5.07407C176.25 4.61905 175.596 4.38624 174.766 4.38624H172.139V9.55556H174.766V9.55026Z" fill="white"/>
</g>
<defs>
<clipPath id="clip0_9610_177">
<rect width="182.727" height="20" fill="white"/>
</clipPath>
</defs>
</svg>
